<svg width="259" height="140" viewBox="0 0 259 140" fill="none" xmlns="http://www.w3.org/2000/svg">
<path d="M83.7889 2.696C86.8609 2.696 89.4049 3.464 91.4209 5C93.4369 6.536 94.4449 8.36 94.4449 10.472C94.4449 14.024 92.0929 15.8 87.3889 15.8C87.4849 13.88 87.0529 12.392 86.0929 11.336C85.2289 10.184 84.0769 9.60799 82.6369 9.60799C75.6289 9.60799 68.7169 18.92 61.9009 37.544C63.7249 37.736 65.3569 37.928 66.7969 38.12C68.3329 38.216 69.6769 38.264 70.8289 38.264C74.3809 38.264 77.1169 37.688 79.0369 36.536C80.9569 38.168 81.9169 39.608 81.9169 40.856C81.9169 43.736 79.1329 45.176 73.5649 45.176L59.7409 44.024C58.7809 46.712 57.7729 49.688 56.7169 52.952C55.7569 56.216 54.7009 59.768 53.5489 63.608C52.3969 67.448 51.2929 71 50.2369 74.264C49.2769 77.432 48.4129 80.36 47.6449 83.048C46.8769 85.736 46.0129 88.568 45.0529 91.544C44.0929 94.424 43.0369 97.448 41.8849 100.616C40.8289 103.688 39.7729 106.52 38.7169 109.112C37.6609 111.8 36.6049 114.2 35.5489 116.312C34.0129 119.576 32.3329 122.6 30.5089 125.384C28.6849 128.264 26.7649 130.76 24.7489 132.872C22.6369 134.984 20.3809 136.616 17.9809 137.768C15.5809 138.92 13.0369 139.4 10.3489 139.208C7.46894 139.208 5.06894 138.488 3.14894 137.048C1.13294 135.704 0.124938 134.024 0.124938 132.008C0.124938 129.128 1.94894 127.4 5.59694 126.824C6.65294 129.896 8.47694 131.432 11.0689 131.432C14.1409 131.432 17.1649 129.368 20.1409 125.24C23.1169 121.208 25.9969 115.592 28.7809 108.392C30.1249 104.744 31.4689 101.096 32.8129 97.448C34.0609 93.896 35.2129 90.344 36.2689 86.792C38.5729 79.784 41.0209 71.864 43.6129 63.032C44.9569 58.616 46.1089 54.824 47.0689 51.656C48.1249 48.392 49.0369 45.656 49.8049 43.448C44.8129 43.448 41.3569 44.12 39.4369 45.464C37.3249 44.504 36.2689 43.208 36.2689 41.576C36.2689 38.12 39.3889 36.392 45.6289 36.392C46.3969 36.392 47.3569 36.44 48.5089 36.536C49.6609 36.536 50.9569 36.584 52.3969 36.68C56.7169 26.024 61.3729 17.72 66.3649 11.768C71.3569 5.72 77.1649 2.696 83.7889 2.696ZM118.43 65.48C119.006 64.904 119.678 65 120.446 65.768C121.31 66.44 121.886 67.4 122.174 68.648L120.302 70.52C119.726 71.096 117.422 73.544 113.39 77.864C109.166 82.184 105.998 85.352 103.886 87.368C102.83 88.424 101.534 89.528 99.9979 90.68C98.5579 91.736 96.9259 92.792 95.1019 93.848C91.4539 96.152 88.1899 97.304 85.3099 97.304C81.7579 97.304 78.9259 95.72 76.8139 92.552C74.7979 89.288 73.7899 84.632 73.7899 78.584C73.7899 68.792 76.8139 57.464 82.8619 44.6C87.6619 34.52 93.9499 24.68 101.726 15.08C109.694 5.384 116.558 0.535997 122.318 0.535997C124.142 0.535997 125.678 1.16 126.926 2.408C128.174 3.56 128.798 5.28799 128.798 7.59199C128.798 14.312 124.142 22.904 114.83 33.368C110.126 38.648 105.614 43.256 101.294 47.192C96.9739 51.128 92.7979 54.344 88.7659 56.84C85.8859 65.48 84.4459 72.536 84.4459 78.008C84.4459 84.536 86.1739 87.8 89.6299 87.8C93.7579 87.224 98.8459 84.2 104.894 78.728C106.046 77.768 107.006 76.904 107.774 76.136C108.542 75.368 109.262 74.696 109.934 74.12C110.606 73.448 111.278 72.776 111.95 72.104C112.718 71.336 113.63 70.424 114.686 69.368C115.646 68.312 116.366 67.544 116.846 67.064C117.422 66.488 117.758 66.152 117.854 66.056L118.43 65.48ZM120.158 7.59199C117.758 7.59199 113.63 11.816 107.774 20.264C104.798 24.584 102.014 28.952 99.4219 33.368C96.9259 37.784 94.6219 42.392 92.5099 47.192C101.918 39.704 109.07 32.456 113.966 25.448C118.958 18.44 121.454 13.112 121.454 9.46399C121.454 8.21599 121.022 7.59199 120.158 7.59199ZM132.819 51.8C131.187 51.8 129.795 51.224 128.643 50.072C127.587 48.92 127.059 47.48 127.059 45.752C127.059 43.64 127.779 41.816 129.219 40.28C130.755 38.648 132.579 37.832 134.691 37.832C136.323 37.832 137.667 38.408 138.723 39.56C139.875 40.616 140.451 42.056 140.451 43.88C140.355 45.992 139.539 47.864 138.003 49.496C136.467 51.032 134.739 51.8 132.819 51.8ZM120.579 97.736C117.699 97.736 115.443 96.824 113.811 95C112.179 93.272 111.363 90.776 111.363 87.512C111.363 81.176 113.427 73.928 117.555 65.768C120.915 59.24 124.275 55.976 127.635 55.976C129.651 55.976 131.523 57.128 133.251 59.432C125.283 71.72 121.299 80.504 121.299 85.784C121.299 88.664 122.355 90.104 124.467 90.104C127.539 90.104 132.483 87.368 139.299 81.896C142.659 79.208 145.827 76.568 148.803 73.976C151.779 71.288 154.563 68.648 157.155 66.056L157.731 65.48C158.403 64.904 159.123 65 159.891 65.768C160.659 66.44 161.187 67.4 161.475 68.648L159.603 70.52C149.715 80.408 142.275 87.128 137.283 90.68C130.755 95.384 125.187 97.736 120.579 97.736ZM164.706 93.56C160.674 93.56 157.506 92.408 155.202 90.104C152.898 87.704 151.746 84.488 151.746 80.456C151.746 73.64 154.77 67.112 160.818 60.872C166.866 54.824 173.106 51.8 179.538 51.8C182.13 51.8 184.194 52.376 185.73 53.528C187.362 54.584 188.178 55.928 188.178 57.56C188.178 59.384 187.122 60.632 185.01 61.304C183.666 62.072 182.13 62.216 180.402 61.736C180.498 59.336 179.538 58.136 177.522 58.136C174.546 58.136 171.522 60.392 168.45 64.904C165.282 69.512 163.698 74.216 163.698 79.016C163.698 83.72 165.378 86.072 168.738 86.072C175.362 86.072 185.346 79.4 198.69 66.056L198.978 65.768C199.938 65 200.754 64.952 201.426 65.624C202.194 66.296 202.722 67.304 203.01 68.648L200.994 70.664C196.77 74.888 193.17 78.344 190.194 81.032C187.122 83.816 183.09 86.552 178.098 89.24C173.01 92.12 168.546 93.56 164.706 93.56ZM254.142 65.768C255.102 65.096 255.918 65.096 256.59 65.768C257.358 66.44 257.886 67.4 258.174 68.648L256.158 70.664C252.318 74.504 247.662 78.44 242.19 82.472C236.622 86.6 232.062 88.664 228.51 88.664C225.918 88.664 223.902 87.848 222.462 86.216C221.022 84.584 220.302 82.376 220.302 79.592C220.302 78.248 220.446 76.616 220.734 74.696C214.974 80.456 209.406 83.336 204.03 83.336C201.438 83.336 199.374 82.616 197.838 81.176C196.206 79.64 195.39 77.576 195.39 74.984C195.39 68.744 199.278 61.736 207.054 53.96C214.734 46.28 222.702 42.44 230.958 42.44C233.838 42.44 236.142 42.968 237.87 44.024C239.598 44.984 240.462 46.232 240.462 47.768C240.462 49.88 238.638 51.32 234.99 52.088C233.838 50.36 231.966 49.496 229.374 49.496C224.958 49.496 219.918 52.472 214.254 58.424C208.686 64.376 205.902 69.464 205.902 73.688C205.902 75.224 206.526 75.992 207.774 75.992C209.502 75.992 211.854 74.792 214.83 72.392C217.806 69.992 220.59 66.92 223.182 63.176C225.006 60.68 226.59 57.704 227.934 54.248C231.582 53.96 234.03 54.44 235.278 55.688C236.526 56.936 236.43 59.096 234.99 62.168C231.534 69.08 229.806 74.504 229.806 78.44C229.806 80.168 230.478 81.032 231.822 81.032C234.03 81.032 237.678 79.16 242.766 75.416C247.662 71.672 251.358 68.552 253.854 66.056L254.142 65.768Z" fill="#FF1F4E"/>
</svg>
