<svg width="400" height="60" viewBox="0 0 400 60" fill="none" xmlns="http://www.w3.org/2000/svg">
<path d="M17.2736 60C11.6683 60 7.37846 59.0276 4.4042 57.0829C1.46807 55.1001 7.62939e-06 52.2212 7.62939e-06 48.4461C7.62939e-06 46.5396 0.648244 44.9571 1.94472 43.6988C3.24119 42.4404 4.93804 41.8112 7.03528 41.8112C8.25549 41.8494 9.18971 42.1544 9.83795 42.7264C10.4862 43.2984 10.8103 43.8132 10.8103 44.2707C10.8103 44.347 10.5434 44.5377 10.0095 44.8427C9.4757 45.1478 8.97999 45.6244 8.52241 46.2726C8.10296 46.9209 7.89324 47.7979 7.89324 48.9037C7.89324 51.4204 8.65587 53.3651 10.1811 54.7378C11.7064 56.1106 14.0706 56.797 17.2736 56.797C19.4471 56.797 21.3727 56.3584 23.0505 55.4814C24.6902 54.6425 25.9485 53.5176 26.8256 52.1068C27.7026 50.6959 28.1411 49.2088 28.1411 47.6454C28.1411 45.7388 27.6073 44.0801 26.5396 42.6692C25.4338 41.2965 24.0801 40.1335 22.4786 39.1802C20.877 38.265 18.6845 37.1973 15.9009 35.9771C12.6978 34.5281 10.1049 33.2126 8.12203 32.0305C6.17732 30.8484 4.49953 29.285 3.08866 27.3403C1.71593 25.3956 1.02956 22.9743 1.02956 20.0763C1.02956 15.4623 2.61202 11.9924 5.77694 9.66635C8.94186 7.37846 13.1173 6.23451 18.3032 6.23451C22.3832 6.23451 25.9295 7.09247 28.9419 8.80839C31.9543 10.5243 33.4604 13.041 33.4604 16.3584C33.4604 18.265 32.8122 19.8475 31.5157 21.1058C30.1811 22.3642 28.4843 22.9933 26.4252 22.9933C25.1668 22.9171 24.2326 22.612 23.6225 22.0782C22.9743 21.5062 22.6502 20.9724 22.6502 20.4766C22.6502 20.4385 23.0124 20.2669 23.7369 19.9619C24.4614 19.6187 25.0906 19.123 25.6244 18.4747C26.1964 17.8646 26.4824 16.9876 26.4824 15.8437C26.4824 13.8608 25.7197 12.3165 24.1945 11.2107C22.6692 10.1049 20.7436 9.55195 18.4175 9.55195C15.1382 9.55195 12.6597 10.3146 10.9819 11.8398C9.30411 13.327 8.46521 15.1954 8.46521 17.4452C8.46521 19.3136 8.97999 20.877 10.0095 22.1354C11.001 23.3937 12.6216 24.633 14.8713 25.8532C16.7016 26.8065 18.6845 27.7788 20.8198 28.7703C24.2135 30.2955 26.9209 31.7064 28.9419 33.0029C30.9247 34.2612 32.6025 35.939 33.9752 38.0362C35.348 40.1335 36.0343 42.7264 36.0343 45.8151C36.0343 48.4843 35.1764 50.9056 33.4604 53.0791C31.7827 55.2145 29.5329 56.8923 26.7112 58.1125C23.8513 59.3708 20.7054 60 17.2736 60ZM61.7159 59.3136C57.7121 59.3136 54.3184 58.4747 51.5348 56.797C48.7131 55.081 46.5777 52.755 45.1287 49.8189C43.6797 46.8827 42.9552 43.6225 42.9552 40.0381C42.9552 36.8732 43.6988 33.8418 45.1859 30.9438C46.6349 28.0458 48.7321 25.6816 51.4776 23.8513C54.1849 22.0591 57.3117 21.163 60.858 21.163C65.5863 21.163 69.2278 22.3642 71.7827 24.7664C74.3756 27.2069 75.8437 30.4862 76.1869 34.6044C76.1869 36.3584 75.7102 37.5596 74.7569 38.2078C73.8036 38.8561 72.4118 39.1802 70.5815 39.1802H51.1344C51.1344 44.1373 52.164 48.0648 54.2231 50.9628C56.2822 53.8608 59.4662 55.3098 63.775 55.3098C66.1011 55.3098 68.0648 54.8332 69.6664 53.8799C71.2679 52.8885 72.7741 51.2107 74.1849 48.8465C74.4519 48.5796 74.7188 48.4461 74.9857 48.4461C75.367 48.4461 75.6911 48.5605 75.9581 48.7893C76.4919 49.0944 76.7588 49.571 76.7588 50.2193C76.7588 50.5243 76.7016 50.7531 76.5872 50.9056C74.9476 53.5748 72.8503 55.653 70.2955 57.1401C67.7788 58.5891 64.919 59.3136 61.7159 59.3136ZM51.1344 36.0915H64.1754C66.9209 36.0915 68.3699 34.9857 68.5224 32.7741C68.5224 30.2955 67.8551 28.1983 66.5205 26.4824C65.1859 24.8046 63.2984 23.9657 60.858 23.9657C58.1125 23.9657 55.8627 25.0334 54.1087 27.1687C52.3546 29.3422 51.3632 32.3165 51.1344 36.0915ZM82.9933 58.6273C82.6502 58.6273 82.3451 58.4557 82.0782 58.1125C81.8494 57.8074 81.735 57.4452 81.735 57.0257C81.7731 56.3394 81.9257 55.9199 82.1926 55.7674C82.4214 55.653 82.8789 55.5958 83.5653 55.5958C84.9762 55.5958 85.9676 55.348 86.5396 54.8522C87.1115 54.3565 87.4547 53.8036 87.5691 53.1935C87.6835 52.5453 87.7407 51.5157 87.7407 50.1049V11.0391C87.7407 9.66635 87.7026 8.65586 87.6263 8.00763C87.5501 7.35939 87.2069 6.80648 86.5968 6.3489C86.0248 5.85319 85.0524 5.60534 83.6797 5.60534C83.0315 5.60534 82.5358 5.51001 82.1926 5.31935C81.8875 5.12869 81.735 4.69018 81.735 4.00381C81.735 3.69876 81.8494 3.39371 82.0782 3.08866C82.2688 2.7836 82.5739 2.61201 82.9933 2.57388C86.387 2.07817 89.285 1.37274 91.6873 0.457578C92.4118 0.190657 93.0219 0.0381316 93.5176 0H93.7464C94.5853 0 95.0048 0.514776 95.0048 1.54433V50.1049C95.0048 51.5157 95.062 52.5453 95.1764 53.1935C95.2908 53.8036 95.6339 54.3565 96.2059 54.8522C96.816 55.348 97.8074 55.5958 99.1802 55.5958H99.695C100.114 55.5958 100.419 55.6721 100.61 55.8246C100.839 55.9771 100.972 56.3775 101.01 57.0257C101.01 57.4452 100.915 57.8074 100.725 58.1125C100.496 58.4557 100.172 58.6273 99.7521 58.6273C96.6635 58.4747 93.8608 58.3985 91.3441 58.3985C88.9419 58.3985 86.1583 58.4747 82.9933 58.6273ZM124.805 59.3136C120.801 59.3136 117.407 58.4747 114.623 56.797C111.802 55.081 109.666 52.755 108.217 49.8189C106.806 46.8827 106.101 43.6225 106.101 40.0381C106.101 36.8732 106.826 33.8418 108.275 30.9438C109.762 28.0458 111.859 25.6816 114.566 23.8513C117.274 22.0591 120.4 21.163 123.947 21.163C128.675 21.163 132.336 22.3642 134.929 24.7664C137.483 27.2069 138.951 30.4862 139.333 34.6044C139.333 36.3584 138.837 37.5596 137.846 38.2078C136.892 38.8561 135.52 39.1802 133.727 39.1802H114.223C114.223 44.1373 115.253 48.0648 117.312 50.9628C119.371 53.8608 122.574 55.3098 126.921 55.3098C129.209 55.3098 131.153 54.8332 132.755 53.8799C134.357 52.8885 135.882 51.2107 137.331 48.8465C137.598 48.5796 137.865 48.4461 138.132 48.4461C138.475 48.4461 138.78 48.5605 139.047 48.7893C139.581 49.0944 139.847 49.571 139.847 50.2193C139.847 50.5243 139.809 50.7531 139.733 50.9056C138.055 53.5748 135.958 55.653 133.441 57.1401C130.887 58.5891 128.008 59.3136 124.805 59.3136ZM114.223 36.0915H127.321C130.029 36.0915 131.459 34.9857 131.611 32.7741C131.611 30.2955 130.944 28.1983 129.609 26.4824C128.275 24.8046 126.387 23.9657 123.947 23.9657C121.201 23.9657 118.951 25.0334 117.197 27.1687C115.443 29.3422 114.452 32.3165 114.223 36.0915ZM163.756 59.3136C158.303 59.3136 154.032 57.5786 150.944 54.1087C147.817 50.6387 146.254 46.0057 146.254 40.2097C146.368 36.5872 147.264 33.346 148.942 30.4862C150.62 27.6263 152.888 25.3766 155.748 23.7369C158.57 22.0972 161.678 21.2393 165.072 21.163C168.503 21.163 171.459 21.7922 173.937 23.0505C176.416 24.347 177.655 26.4824 177.655 29.4566C177.655 31.1344 177.159 32.6025 176.168 33.8608C175.176 35.081 173.861 35.6911 172.221 35.6911C171.192 35.6911 170.334 35.4242 169.647 34.8904C168.923 34.3565 168.561 33.918 168.561 33.5748C168.561 33.4986 168.789 33.2507 169.247 32.8313C169.743 32.4118 170.181 31.897 170.562 31.2869C170.982 30.6768 171.192 29.9714 171.192 29.1706C171.192 27.4929 170.582 26.2345 169.361 25.3956C168.179 24.5186 166.73 24.0801 165.014 24.0801C160.896 24.0801 158.112 25.6053 156.663 28.6559C155.176 31.6683 154.433 35.4433 154.433 39.9809C154.433 44.4423 155.443 48.122 157.464 51.02C159.523 53.8799 162.231 55.3098 165.586 55.3098C167.874 55.3098 169.838 54.8332 171.478 53.8799C173.079 52.8885 174.547 51.3632 175.882 49.3041C176.072 49.0372 176.339 48.9037 176.683 48.9037C176.949 48.9037 177.255 48.9991 177.598 49.1897C177.865 49.266 178.074 49.4376 178.227 49.7045C178.379 49.9714 178.456 50.2383 178.456 50.5052C178.456 50.6959 178.379 50.9247 178.227 51.1916C176.473 53.6702 174.28 55.653 171.649 57.1401C169.056 58.5891 166.425 59.3136 163.756 59.3136ZM198.303 59.714C195.71 59.714 193.48 58.7607 191.611 56.8542C189.743 54.9476 188.808 52.2021 188.808 48.6177V25.0524L184.175 25.224C183.832 25.224 183.565 25.0715 183.375 24.7664C183.146 24.4995 183.031 24.1754 183.031 23.7941C183.031 23.2984 183.127 22.8789 183.317 22.5357C183.508 22.1926 183.794 22.0019 184.175 21.9638C186.044 21.5825 187.493 20.9724 188.522 20.1335C189.552 19.2946 190.315 18.3985 190.81 17.4452C191.268 16.4538 191.859 14.9285 192.583 12.8694C192.85 12.183 193.422 11.8398 194.299 11.8398C194.681 11.8398 195.062 11.9352 195.443 12.1258C195.825 12.3165 196.015 12.6025 196.015 12.9838L195.443 22.0782L204.824 21.5634H204.995C205.682 21.5634 206.025 22.0591 206.025 23.0505C206.025 23.6606 205.929 24.2135 205.739 24.7092C205.548 25.205 205.319 25.4528 205.052 25.4528L196.072 25.224V49.5901C196.072 51.3441 196.435 52.8122 197.159 53.9943C197.884 55.1382 199.066 55.7102 200.705 55.7102C202.383 55.7102 203.851 55.4242 205.11 54.8522C205.834 54.5853 206.273 54.4519 206.425 54.4519C206.806 54.4519 207.092 54.6044 207.283 54.9094C207.512 55.1764 207.722 55.5577 207.912 56.0534C207.989 56.1678 208.027 56.3012 208.027 56.4538C208.027 56.6826 207.855 56.9304 207.512 57.1973C205.987 58.1888 204.538 58.8561 203.165 59.1992C201.792 59.5424 200.172 59.714 198.303 59.714ZM234.223 58.6273C233.727 58.6273 233.365 58.4557 233.136 58.1125C232.869 57.7693 232.736 57.3499 232.736 56.8542C232.812 56.0534 232.984 55.5767 233.251 55.4242C233.518 55.2717 234.013 55.1954 234.738 55.1954C236.301 55.1954 237.445 54.9094 238.17 54.3375C238.894 53.7655 239.333 53.0982 239.485 52.3356C239.638 51.5729 239.752 50.4671 239.828 49.0181L239.943 17.2164C239.943 15.6149 239.771 14.3947 239.428 13.5558C239.085 12.755 238.551 12.164 237.827 11.7827C237.064 11.4013 235.996 11.0772 234.623 10.8103C233.708 10.6578 233.136 10.5052 232.908 10.3527C232.717 10.1621 232.622 9.70448 232.622 8.97998C232.622 8.33175 232.793 7.89323 233.136 7.66444C233.48 7.47378 234.013 7.37846 234.738 7.37846C238.055 7.37846 240.686 7.60725 242.631 8.06482C244.538 8.5224 246.215 9.32316 247.664 10.4671C249.152 11.6492 250.772 13.4414 252.526 15.8437L274.49 44.6711H274.719L274.547 17.2164C274.509 15.7674 274.414 14.6616 274.261 13.899C274.071 13.1363 273.632 12.469 272.946 11.897C272.221 11.3251 271.077 11.0391 269.514 11.0391H269.056C268.522 11.0391 268.122 10.9438 267.855 10.7531C267.626 10.5624 267.493 10.1049 267.455 9.38036C267.455 8.88465 267.588 8.46521 267.855 8.12202C268.122 7.77884 268.465 7.60724 268.885 7.60724C272.278 7.75977 274.833 7.83604 276.549 7.83604C277.579 7.83604 279.523 7.77884 282.383 7.66444L284.099 7.60724C284.557 7.60724 284.919 7.77884 285.186 8.12202C285.415 8.46521 285.529 8.88465 285.529 9.38036C285.491 10.1811 285.338 10.6578 285.072 10.8103C284.805 10.9628 284.29 11.0391 283.527 11.0391C281.964 11.0391 280.82 11.3251 280.095 11.897C279.409 12.469 278.97 13.1363 278.78 13.899C278.627 14.6616 278.532 15.7674 278.494 17.2164L278.322 57.5977C278.284 58.2841 277.617 58.6273 276.32 58.6273C275.291 58.6273 274.509 58.2841 273.975 57.5977L243.832 17.2164H243.546L243.718 49.0181C243.794 50.4671 243.909 51.5729 244.061 52.3356C244.214 53.0982 244.652 53.7655 245.377 54.3375C246.101 54.9094 247.226 55.1954 248.751 55.1954H249.266C249.8 55.1954 250.181 55.2908 250.41 55.4814C250.639 55.6339 250.791 56.0915 250.868 56.8542C250.868 57.3499 250.734 57.7693 250.467 58.1125C250.238 58.4557 249.895 58.6273 249.438 58.6273C246.006 58.4747 243.413 58.3985 241.659 58.3985C240.591 58.3985 238.723 58.4366 236.053 58.5129L234.223 58.6273ZM310.181 59.3136C306.559 59.3136 303.337 58.4557 300.515 56.7398C297.693 54.9857 295.481 52.6978 293.88 49.8761C292.317 47.0162 291.535 43.9847 291.535 40.7817C291.535 36.7779 292.469 33.2888 294.337 30.3146C296.206 27.3403 298.589 25.0715 301.487 23.5081C304.347 21.9447 307.245 21.163 310.181 21.163C313.804 21.163 317.045 22.021 319.905 23.7369C322.726 25.4909 324.919 27.7979 326.482 30.6578C328.046 33.4795 328.827 36.4919 328.827 39.6949C328.827 43.6988 327.893 47.1878 326.025 50.1621C324.118 53.1363 321.716 55.4051 318.818 56.9685C315.958 58.5319 313.079 59.3136 310.181 59.3136ZM310.181 56.3966C313.804 56.3966 316.454 54.8332 318.132 51.7064C319.848 48.6177 320.705 44.6139 320.705 39.6949C320.705 35.1192 319.828 31.3823 318.074 28.4843C316.358 25.5481 313.727 24.0801 310.181 24.0801C306.521 24.0801 303.851 25.6053 302.174 28.6559C300.534 31.7064 299.714 35.6911 299.714 40.6101C299.714 45.1859 300.572 48.9609 302.288 51.9352C303.966 54.9094 306.597 56.3966 310.181 56.3966ZM349.419 59.714C346.826 59.714 344.595 58.7607 342.726 56.8542C340.858 54.9476 339.924 52.2021 339.924 48.6177V25.0524L335.234 25.224C334.929 25.224 334.662 25.0715 334.433 24.7664C334.242 24.4995 334.147 24.1754 334.147 23.7941C334.147 23.2984 334.242 22.8789 334.433 22.5357C334.623 22.1926 334.89 22.0019 335.234 21.9638C337.102 21.5825 338.57 20.9724 339.638 20.1335C340.667 19.2946 341.43 18.3985 341.926 17.4452C342.383 16.4538 342.955 14.9285 343.642 12.8694C343.909 12.183 344.5 11.8398 345.415 11.8398C345.796 11.8398 346.177 11.9352 346.559 12.1258C346.94 12.3165 347.131 12.6025 347.131 12.9838L346.559 22.0782L355.939 21.5634H356.053C356.778 21.5634 357.14 22.0591 357.14 23.0505C357.14 23.6606 357.045 24.2135 356.854 24.7092C356.664 25.205 356.435 25.4528 356.168 25.4528L347.188 25.224V49.5901C347.188 51.3441 347.55 52.8122 348.275 53.9943C348.999 55.1382 350.181 55.7102 351.821 55.7102C353.499 55.7102 354.967 55.4242 356.225 54.8522C356.911 54.5853 357.35 54.4519 357.541 54.4519C357.884 54.4519 358.17 54.6044 358.398 54.9094C358.627 55.1764 358.837 55.5577 359.028 56.0534C359.104 56.1678 359.142 56.3012 359.142 56.4538C359.142 56.6826 358.97 56.9304 358.627 57.1973C357.102 58.1888 355.653 58.8561 354.28 59.1992C352.908 59.5424 351.287 59.714 349.419 59.714ZM384.48 59.3136C380.477 59.3136 377.083 58.4747 374.299 56.797C371.478 55.081 369.361 52.755 367.95 49.8189C366.501 46.8827 365.777 43.6225 365.777 40.0381C365.777 36.8732 366.501 33.8418 367.95 30.9438C369.438 28.0458 371.535 25.6816 374.242 23.8513C376.988 22.0591 380.114 21.163 383.623 21.163C388.389 21.163 392.05 22.3642 394.604 24.7664C397.159 27.2069 398.627 30.4862 399.009 34.6044C399.009 36.3584 398.532 37.5596 397.579 38.2078C396.587 38.8561 395.195 39.1802 393.403 39.1802H373.956C373.956 44.1373 374.967 48.0648 376.988 50.9628C379.047 53.8608 382.25 55.3098 386.597 55.3098C388.885 55.3098 390.829 54.8332 392.431 53.8799C394.032 52.8885 395.558 51.2107 397.007 48.8465C397.274 48.5796 397.541 48.4461 397.807 48.4461C398.189 48.4461 398.513 48.5605 398.78 48.7893C399.314 49.0944 399.581 49.571 399.581 50.2193C399.581 50.5243 399.523 50.7531 399.409 50.9056C397.731 53.5748 395.634 55.653 393.117 57.1401C390.562 58.5891 387.684 59.3136 384.48 59.3136ZM373.956 36.0915H386.997C389.704 36.0915 391.134 34.9857 391.287 32.7741C391.287 30.2955 390.62 28.1983 389.285 26.4824C387.95 24.8046 386.063 23.9657 383.623 23.9657C380.915 23.9657 378.665 25.0334 376.873 27.1687C375.119 29.3422 374.147 32.3165 373.956 36.0915Z" fill="black"/>
</svg>
