<svg xmlns="http://www.w3.org/2000/svg" xmlns:xlink="http://www.w3.org/1999/xlink" version="1.1" id="Layer_2" x="0px" y="0px" viewBox="0 0 500 500" style="enable-background:new 0 0 500 500;" xml:space="preserve">
<style type="text/css">
	.st0{fill:#2A94F4;}
	.st1{fill:#FFBE55;}
</style>
<g>
	<g>
		<g>
			<path class="st0" d="M374.99,500H134.87c-14.17,0-25.7-11.53-25.7-25.7V25.7c0-14.17,11.53-25.7,25.7-25.7h240.12     c14.17,0,25.7,11.53,25.7,25.7V474.3C400.69,488.47,389.16,500,374.99,500z M134.87,9.82c-8.75,0-15.87,7.12-15.87,15.87V474.3     c0,8.75,7.12,15.87,15.87,15.87h240.12c8.75,0,15.87-7.12,15.87-15.87V25.7c0-8.75-7.12-15.87-15.87-15.87H134.87z"/>
		</g>
	</g>
	<g>
		<g>
			<rect x="99.31" y="94.11" class="st0" width="9.82" height="40.21"/>
		</g>
	</g>
	<g>
		<g>
			<rect x="99.31" y="149.13" class="st0" width="9.82" height="40.21"/>
		</g>
	</g>
	<g>
		<g>
			<rect x="222.04" y="24.17" class="st1" width="50.72" height="4.91"/>
		</g>
	</g>
	<g>
		<g>
			<path class="st1" d="M254.92,458.77c-12.64,0-22.93-10.28-22.93-22.93s10.28-22.93,22.93-22.93c12.64,0,22.93,10.29,22.93,22.93     S267.57,458.77,254.92,458.77z M254.92,417.81c-9.93,0-18.02,8.08-18.02,18.02c0,9.93,8.08,18.02,18.02,18.02     c9.94,0,18.02-8.08,18.02-18.02C272.95,425.9,264.86,417.81,254.92,417.81z"/>
		</g>
	</g>
	<g>
		<g>
			<path class="st0" d="M308.44,53.26H201.41c-6.22,0-11.27-5.06-11.27-11.27V4.91h9.82v37.07c0,0.8,0.65,1.45,1.45,1.45h107.04     c0.8,0,1.44-0.65,1.44-1.45V4.91h9.82v37.07C319.71,48.2,314.66,53.26,308.44,53.26z"/>
		</g>
	</g>
	<g>
		<g>
			<rect x="280.99" y="24.17" class="st1" width="6.83" height="4.91"/>
		</g>
	</g>
</g>
</svg>