<svg data-v-29081953="" xmlns="http://www.w3.org/2000/svg" viewBox="0 0 300 300"><!----><defs data-v-29081953=""><!----></defs><rect data-v-29081953="" fill="#FBC70E" x="0" y="0" width="300px" height="300px" class="logo-background-square"></rect><!----><defs data-v-29081953=""><!----></defs><g data-v-29081953="" id="b2fe0bbb-e725-4eb0-b1b2-160b38dcbe92" fill="#B93284" stroke="none" transform="matrix(2.4444444444444446,0,0,2.4444444444444446,27.777777777777764,27.777777777777764)"><path clip-rule="evenodd" d="M95 65c0 16.57-13.43 30-30 30S35 81.57 35 65c0-16.564 13.43-30 30-30s30 13.436 30 30zm-6 0c0 13.254-10.746 24-24 24S41 78.254 41 65s10.746-24 24-24 24 10.746 24 24zM71 47c-1.652 0-3 1.348-3 3v15H56c-1.652 0-3 1.348-3 3s1.348 3 3 3h15c1.652 0 3-1.348 3-3V50c0-1.652-1.348-3-3-3zm-45-6h9.803a35.916 35.916 0 0 0-3.498 6H26v-6zm0 18h3.152a35.55 35.55 0 0 1 1.031-6H26v6zM65 5H11c-3.299 0-6 2.701-6 6v60c0 3.305 2.701 6 6 6h20.092a36.018 36.018 0 0 1-1.564-6H11V11h54v18c2.051 0 4.043.211 6 .539V11c0-3.299-2.701-6-6-6zM14 23h6v-6h-6v6zm0 24h6v-6h-6v6zm0-12h6v-6h-6v6zm48-18H26v6h36v-6zM26 35h15.246a36.084 36.084 0 0 1 9.387-6H26v6zM14 59h6v-6h-6v6z"></path></g><!----></svg>